<svg id="visual" viewBox="0 0 900 600" width="900" height="600" xmlns="http://www.w3.org/2000/svg" xmlns:xlink="http://www.w3.org/1999/xlink" version="1.1"><rect x="0" y="0" width="900" height="600" fill="#001220"></rect><defs><linearGradient id="grad1_0" x1="33.3%" y1="0%" x2="100%" y2="100%"><stop offset="20%" stop-color="#fcaf3c" stop-opacity="1"></stop><stop offset="80%" stop-color="#fcaf3c" stop-opacity="1"></stop></linearGradient></defs><defs><linearGradient id="grad1_1" x1="33.3%" y1="0%" x2="100%" y2="100%"><stop offset="20%" stop-color="#fcaf3c" stop-opacity="1"></stop><stop offset="80%" stop-color="#cd5867" stop-opacity="1"></stop></linearGradient></defs><defs><linearGradient id="grad1_2" x1="33.3%" y1="0%" x2="100%" y2="100%"><stop offset="20%" stop-color="#5a3763" stop-opacity="1"></stop><stop offset="80%" stop-color="#cd5867" stop-opacity="1"></stop></linearGradient></defs><defs><linearGradient id="grad1_3" x1="33.3%" y1="0%" x2="100%" y2="100%"><stop offset="20%" stop-color="#5a3763" stop-opacity="1"></stop><stop offset="80%" stop-color="#001220" stop-opacity="1"></stop></linearGradient></defs><defs><linearGradient id="grad2_0" x1="0%" y1="0%" x2="66.7%" y2="100%"><stop offset="20%" stop-color="#fcaf3c" stop-opacity="1"></stop><stop offset="80%" stop-color="#fcaf3c" stop-opacity="1"></stop></linearGradient></defs><defs><linearGradient id="grad2_1" x1="0%" y1="0%" x2="66.7%" y2="100%"><stop offset="20%" stop-color="#cd5867" stop-opacity="1"></stop><stop offset="80%" stop-color="#fcaf3c" stop-opacity="1"></stop></linearGradient></defs><defs><linearGradient id="grad2_2" x1="0%" y1="0%" x2="66.7%" y2="100%"><stop offset="20%" stop-color="#cd5867" stop-opacity="1"></stop><stop offset="80%" stop-color="#5a3763" stop-opacity="1"></stop></linearGradient></defs><defs><linearGradient id="grad2_3" x1="0%" y1="0%" x2="66.7%" y2="100%"><stop offset="20%" stop-color="#001220" stop-opacity="1"></stop><stop offset="80%" stop-color="#5a3763" stop-opacity="1"></stop></linearGradient></defs><g transform="translate(900, 0)"><path d="M0 486.7C-54.9 452.7 -109.9 418.6 -162.6 392.6C-215.4 366.7 -266 348.8 -317.5 317.5C-369 286.2 -421.3 241.4 -449.7 186.3C-478.1 131.1 -482.4 65.6 -486.7 0L0 0Z" fill="#242746"></path><path d="M0 365.1C-41.2 339.5 -82.4 314 -122 294.5C-161.6 275 -199.5 261.6 -238.1 238.1C-276.7 214.6 -316 181.1 -337.3 139.7C-358.5 98.3 -361.8 49.2 -365.1 0L0 0Z" fill="#97446e"></path><path d="M0 243.4C-27.5 226.3 -54.9 209.3 -81.3 196.3C-107.7 183.3 -133 174.4 -158.7 158.7C-184.5 143.1 -210.7 120.7 -224.8 93.1C-239 65.6 -241.2 32.8 -243.4 0L0 0Z" fill="#f27d53"></path><path d="M0 121.7C-13.7 113.2 -27.5 104.7 -40.7 98.2C-53.9 91.7 -66.5 87.2 -79.4 79.4C-92.2 71.5 -105.3 60.4 -112.4 46.6C-119.5 32.8 -120.6 16.4 -121.7 0L0 0Z" fill="#fcaf3c"></path></g><g transform="translate(0, 600)"><path d="M0 -486.7C44.6 -432.5 89.3 -378.3 149.6 -361.2C210 -344.2 286.1 -364.3 340.8 -340.8C395.6 -317.4 428.9 -250.3 449.7 -186.3C470.5 -122.2 478.6 -61.1 486.7 0L0 0Z" fill="#242746"></path><path d="M0 -365.1C33.5 -324.4 66.9 -283.7 112.2 -270.9C157.5 -258.1 214.6 -273.2 255.6 -255.6C296.7 -238 321.7 -187.8 337.3 -139.7C352.8 -91.7 359 -45.8 365.1 0L0 0Z" fill="#97446e"></path><path d="M0 -243.4C22.3 -216.3 44.6 -189.1 74.8 -180.6C105 -172.1 143 -182.1 170.4 -170.4C197.8 -158.7 214.5 -125.2 224.8 -93.1C235.2 -61.1 239.3 -30.6 243.4 0L0 0Z" fill="#f27d53"></path><path d="M0 -121.7C11.2 -108.1 22.3 -94.6 37.4 -90.3C52.5 -86 71.5 -91.1 85.2 -85.2C98.9 -79.3 107.2 -62.6 112.4 -46.6C117.6 -30.6 119.7 -15.3 121.7 0L0 0Z" fill="#fcaf3c"></path></g></svg>