<svg id="visual" viewBox="0 0 900 600" width="900" height="600" xmlns="http://www.w3.org/2000/svg" xmlns:xlink="http://www.w3.org/1999/xlink" version="1.1"><path d="M0 55L21.5 60C43 65 86 75 128.8 74C171.7 73 214.3 61 257.2 56C300 51 343 53 385.8 49C428.7 45 471.3 35 514.2 35C557 35 600 45 642.8 48C685.7 51 728.3 47 771.2 42C814 37 857 31 878.5 28L900 25L900 0L878.5 0C857 0 814 0 771.2 0C728.3 0 685.7 0 642.8 0C600 0 557 0 514.2 0C471.3 0 428.7 0 385.8 0C343 0 300 0 257.2 0C214.3 0 171.7 0 128.8 0C86 0 43 0 21.5 0L0 0Z" fill="#7b38bb"></path><path d="M0 253L21.5 236C43 219 86 185 128.8 169C171.7 153 214.3 155 257.2 173C300 191 343 225 385.8 233C428.7 241 471.3 223 514.2 225C557 227 600 249 642.8 251C685.7 253 728.3 235 771.2 204C814 173 857 129 878.5 107L900 85L900 23L878.5 26C857 29 814 35 771.2 40C728.3 45 685.7 49 642.8 46C600 43 557 33 514.2 33C471.3 33 428.7 43 385.8 47C343 51 300 49 257.2 54C214.3 59 171.7 71 128.8 72C86 73 43 63 21.5 58L0 53Z" fill="#8a41cf"></path><path d="M0 277L21.5 266C43 255 86 233 128.8 223C171.7 213 214.3 215 257.2 232C300 249 343 281 385.8 286C428.7 291 471.3 269 514.2 272C557 275 600 303 642.8 303C685.7 303 728.3 275 771.2 237C814 199 857 151 878.5 127L900 103L900 83L878.5 105C857 127 814 171 771.2 202C728.3 233 685.7 251 642.8 249C600 247 557 225 514.2 223C471.3 221 428.7 239 385.8 231C343 223 300 189 257.2 171C214.3 153 171.7 151 128.8 167C86 183 43 217 21.5 234L0 251Z" fill="#994be3"></path><path d="M0 295L21.5 288C43 281 86 267 128.8 264C171.7 261 214.3 269 257.2 291C300 313 343 349 385.8 356C428.7 363 471.3 341 514.2 338C557 335 600 351 642.8 347C685.7 343 728.3 319 771.2 284C814 249 857 203 878.5 180L900 157L900 101L878.5 125C857 149 814 197 771.2 235C728.3 273 685.7 301 642.8 301C600 301 557 273 514.2 270C471.3 267 428.7 289 385.8 284C343 279 300 247 257.2 230C214.3 213 171.7 211 128.8 221C86 231 43 253 21.5 264L0 275Z" fill="#a855f7"></path><path d="M0 385L21.5 378C43 371 86 357 128.8 352C171.7 347 214.3 351 257.2 366C300 381 343 407 385.8 417C428.7 427 471.3 421 514.2 424C557 427 600 439 642.8 428C685.7 417 728.3 383 771.2 345C814 307 857 265 878.5 244L900 223L900 155L878.5 178C857 201 814 247 771.2 282C728.3 317 685.7 341 642.8 345C600 349 557 333 514.2 336C471.3 339 428.7 361 385.8 354C343 347 300 311 257.2 289C214.3 267 171.7 259 128.8 262C86 265 43 279 21.5 286L0 293Z" fill="#b268f9"></path><path d="M0 553L21.5 547C43 541 86 529 128.8 524C171.7 519 214.3 521 257.2 522C300 523 343 523 385.8 526C428.7 529 471.3 535 514.2 532C557 529 600 517 642.8 514C685.7 511 728.3 517 771.2 505C814 493 857 463 878.5 448L900 433L900 221L878.5 242C857 263 814 305 771.2 343C728.3 381 685.7 415 642.8 426C600 437 557 425 514.2 422C471.3 419 428.7 425 385.8 415C343 405 300 379 257.2 364C214.3 349 171.7 345 128.8 350C86 355 43 369 21.5 376L0 383Z" fill="#bc7afa"></path><path d="M0 601L21.5 601C43 601 86 601 128.8 601C171.7 601 214.3 601 257.2 601C300 601 343 601 385.8 601C428.7 601 471.3 601 514.2 601C557 601 600 601 642.8 601C685.7 601 728.3 601 771.2 601C814 601 857 601 878.5 601L900 601L900 431L878.5 446C857 461 814 491 771.2 503C728.3 515 685.7 509 642.8 512C600 515 557 527 514.2 530C471.3 533 428.7 527 385.8 524C343 521 300 521 257.2 520C214.3 519 171.7 517 128.8 522C86 527 43 539 21.5 545L0 551Z" fill="#c68cfb"></path></svg>